<?xml version="1.0" encoding="utf-8"?>
<!-- Generator: Adobe Illustrator 21.1.0, SVG Export Plug-In . SVG Version: 6.00 Build 0)  -->
<svg version="1.1" id="Layer_1" xmlns="http://www.w3.org/2000/svg" xmlns:xlink="http://www.w3.org/1999/xlink" x="0px" y="0px"
	 viewBox="0 0 35 35" style="enable-background:new 0 0 35 35;" xml:space="preserve">
<style type="text/css">
	.st0{fill:#003082;stroke:#003082;stroke-width:0.25;stroke-miterlimit:10;}
</style>
<g>
	<g>
		<path class="st0" d="M23.7,7c-2.5,0-4.7,1.6-5.6,3.8C17.2,8.7,15,7,12.5,7C9,7,6.9,10.3,6.9,13.6s1.9,6.8,5.5,10.6
			c2.7,2.7,5.5,4.5,5.5,4.5l0.2,0.1l0.2-0.1c0,0,2.7-1.8,5.5-4.5c3.6-3.6,5.5-7.1,5.5-10.6C29.3,10.3,27.2,7,23.7,7z M18.1,27.7
			c-1.4-0.9-10.6-7.4-10.6-14.2c0-2.9,1.9-5.8,4.9-5.8c2.5,0,5.3,1.9,5.3,5.1h0.7c0-3.1,2.7-5.1,5.3-5.1c3.1,0,4.9,3,4.9,5.8
			C28.5,20.4,19.5,26.8,18.1,27.7z"/>
	</g>
</g>
</svg>
