<?xml version="1.0" encoding="utf-8"?>
<!-- Generator: Adobe Illustrator 21.1.0, SVG Export Plug-In . SVG Version: 6.00 Build 0)  -->
<svg version="1.1" id="icon" xmlns="http://www.w3.org/2000/svg" xmlns:xlink="http://www.w3.org/1999/xlink" x="0px" y="0px"
	 viewBox="0 0 35 35" style="enable-background:new 0 0 35 35;" xml:space="preserve">
<style type="text/css">
	.st0{fill:#003082;}
</style>
<g>
	<path class="st0" d="M26.1,26H10.9c-0.3,0-0.4-0.2-0.4-0.5s0.2-0.5,0.4-0.5h15.2c0.3,0,0.4,0.2,0.4,0.5S26.3,26,26.1,26z"/>
	<path class="st0" d="M26.1,16H10.9c-0.3,0-0.4-0.2-0.4-0.5s0.2-0.5,0.4-0.5h15.2c0.3,0,0.4,0.2,0.4,0.5S26.3,16,26.1,16z"/>
	<path class="st0" d="M26.1,21H10.9c-0.3,0-0.4-0.2-0.4-0.5s0.2-0.5,0.4-0.5h15.2c0.3,0,0.4,0.2,0.4,0.5S26.3,21,26.1,21z"/>
	<path class="st0" d="M26.1,11H10.9c-0.3,0-0.4-0.2-0.4-0.5s0.2-0.5,0.4-0.5h15.2c0.3,0,0.4,0.2,0.4,0.5S26.3,11,26.1,11z"/>
</g>
<ellipse class="st0" cx="9" cy="10.5" rx="0.5" ry="0.5"/>
<ellipse class="st0" cx="9" cy="15.5" rx="0.5" ry="0.5"/>
<ellipse class="st0" cx="9" cy="20.5" rx="0.5" ry="0.5"/>
<ellipse class="st0" cx="9" cy="25.5" rx="0.5" ry="0.5"/>
</svg>
