<?xml version="1.0" encoding="utf-8"?>
<!-- Generator: Adobe Illustrator 21.1.0, SVG Export Plug-In . SVG Version: 6.00 Build 0)  -->
<svg version="1.1" id="icon" xmlns="http://www.w3.org/2000/svg" xmlns:xlink="http://www.w3.org/1999/xlink" x="0px" y="0px"
	 viewBox="0 0 35 35" style="enable-background:new 0 0 35 35;" xml:space="preserve">
<style type="text/css">
	.st0{fill:#23396F;stroke:#233973;stroke-width:0.25;stroke-miterlimit:10;}
</style>
<g>
	<g>
		<path class="st0" d="M13.5,9.7H9.3c-0.4,0-0.8,0.4-0.8,0.8v3.7c0,0.4,0.4,0.8,0.8,0.8h0.3v-0.3H9.3c-0.3,0-0.5-0.2-0.5-0.5v-3.7
			C8.8,10.2,9,10,9.3,10h4.2c0.3,0,0.5,0.2,0.5,0.5v3.7c0,0.3-0.2,0.5-0.5,0.5h-4V15h4c0.4,0,0.8-0.4,0.8-0.8v-3.7
			C14.3,10,14,9.7,13.5,9.7z"/>
	</g>
</g>
<g>
	<g>
		<path class="st0" d="M19.8,9.7h-4.2c-0.4,0-0.8,0.4-0.8,0.8v3.7c0,0.4,0.4,0.8,0.8,0.8h0.3v-0.3h-0.3c-0.3,0-0.5-0.2-0.5-0.5v-3.7
			c0-0.3,0.2-0.5,0.5-0.5h4.2c0.3,0,0.5,0.2,0.5,0.5v3.7c0,0.3-0.2,0.5-0.5,0.5h-4V15h4c0.4,0,0.8-0.4,0.8-0.8v-3.7
			C20.5,10,20.2,9.7,19.8,9.7z"/>
	</g>
</g>
<g>
	<g>
		<path class="st0" d="M26,9.7h-4.2c-0.4,0-0.8,0.4-0.8,0.8v3.7c0,0.4,0.4,0.8,0.8,0.8h0.3v-0.3h-0.3c-0.3,0-0.5-0.2-0.5-0.5v-3.7
			c0-0.3,0.2-0.5,0.5-0.5H26c0.3,0,0.5,0.2,0.5,0.5v3.7c0,0.3-0.2,0.5-0.5,0.5h-4V15h4c0.4,0,0.8-0.4,0.8-0.8v-3.7
			C26.8,10,26.4,9.7,26,9.7z"/>
	</g>
</g>
<g>
	<g>
		<path class="st0" d="M13.5,15.4H9.3c-0.4,0-0.8,0.4-0.8,0.8v3.7c0,0.4,0.4,0.8,0.8,0.8h0.3v-0.3H9.3c-0.3,0-0.5-0.2-0.5-0.5v-3.7
			c0-0.3,0.2-0.5,0.5-0.5h4.2c0.3,0,0.5,0.2,0.5,0.5v3.7c0,0.3-0.2,0.5-0.5,0.5h-4v0.3h4c0.4,0,0.8-0.4,0.8-0.8v-3.7
			C14.3,15.8,14,15.4,13.5,15.4z"/>
	</g>
</g>
<g>
	<g>
		<path class="st0" d="M13.5,21.2H9.3c-0.4,0-0.8,0.4-0.8,0.8v3.7c0,0.4,0.4,0.8,0.8,0.8h0.3v-0.3H9.3c-0.3,0-0.5-0.2-0.5-0.5V22
			c0-0.3,0.2-0.5,0.5-0.5h4.2c0.3,0,0.5,0.2,0.5,0.5v3.7c0,0.3-0.2,0.5-0.5,0.5h-4v0.3h4c0.4,0,0.8-0.4,0.8-0.8V22
			C14.3,21.6,14,21.2,13.5,21.2z"/>
	</g>
</g>
<g>
	<g>
		<path class="st0" d="M19.8,15.4h-4.2c-0.4,0-0.8,0.4-0.8,0.8v3.7c0,0.4,0.4,0.8,0.8,0.8h0.3v-0.3h-0.3c-0.3,0-0.5-0.2-0.5-0.5
			v-3.7c0-0.3,0.2-0.5,0.5-0.5h4.2c0.3,0,0.5,0.2,0.5,0.5v3.7c0,0.3-0.2,0.5-0.5,0.5h-4v0.3h4c0.4,0,0.8-0.4,0.8-0.8v-3.7
			C20.6,15.8,20.3,15.4,19.8,15.4z"/>
	</g>
</g>
<g>
	<g>
		<path class="st0" d="M26,15.4h-4.2c-0.4,0-0.8,0.4-0.8,0.8v3.7c0,0.4,0.4,0.8,0.8,0.8h0.3v-0.3h-0.3c-0.3,0-0.5-0.2-0.5-0.5v-3.7
			c0-0.3,0.2-0.5,0.5-0.5H26c0.3,0,0.5,0.2,0.5,0.5v3.7c0,0.3-0.2,0.5-0.5,0.5h-4v0.3h4c0.4,0,0.8-0.4,0.8-0.8v-3.7
			C26.8,15.8,26.4,15.4,26,15.4z"/>
	</g>
</g>
<g>
	<g>
		<path class="st0" d="M19.8,21.2h-4.2c-0.4,0-0.8,0.4-0.8,0.8v3.7c0,0.4,0.4,0.8,0.8,0.8h0.3v-0.3h-0.3c-0.3,0-0.5-0.2-0.5-0.5V22
			c0-0.3,0.2-0.5,0.5-0.5h4.2c0.3,0,0.5,0.2,0.5,0.5v3.7c0,0.3-0.2,0.5-0.5,0.5h-4v0.3h4c0.4,0,0.8-0.4,0.8-0.8V22
			C20.6,21.5,20.3,21.2,19.8,21.2z"/>
	</g>
</g>
<g>
	<g>
		<path class="st0" d="M26,21.2h-4.2c-0.4,0-0.8,0.4-0.8,0.8v3.7c0,0.4,0.4,0.8,0.8,0.8h0.3v-0.3h-0.3c-0.3,0-0.5-0.2-0.5-0.5V22
			c0-0.3,0.2-0.5,0.5-0.5H26c0.3,0,0.5,0.2,0.5,0.5v3.7c0,0.3-0.2,0.5-0.5,0.5h-4v0.3h4c0.4,0,0.8-0.4,0.8-0.8V22
			C26.8,21.5,26.4,21.2,26,21.2z"/>
	</g>
</g>
</svg>
