<?xml version="1.0" encoding="utf-8"?>
<!-- Generator: Adobe Illustrator 21.1.0, SVG Export Plug-In . SVG Version: 6.00 Build 0)  -->
<svg version="1.1" id="Layer_1" xmlns="http://www.w3.org/2000/svg" xmlns:xlink="http://www.w3.org/1999/xlink" x="0px" y="0px"
	 viewBox="0 0 35 35" style="enable-background:new 0 0 35 35;" xml:space="preserve">
<style type="text/css">
	.st0{fill:#003082;}
</style>
<g>
	<g>
		<g>
			<path class="st0" d="M25,7.2H9c-1.7,0-3,1.3-3,3v14c0,1.7,1.3,3,3,3h1v-1H9c-1.1,0-2-0.9-2-2v-14c0-1.1,0.9-2,2-2h16
				c1.1,0,2,0.9,2,2v14c0,1.1-0.9,2-2,2H14l-1.1,1H25c1.7,0,3-1.3,3-3v-14C28,8.6,26.7,7.2,25,7.2z"/>
		</g>
	</g>
	<g>
		<g>
			<polygon class="st0" points="13.7,26.2 11,28.8 11,26.2 10,26.2 10,31.2 15,26.2 			"/>
		</g>
	</g>
	<g>
		<path class="st0" d="M15.1,20.3h-0.8v-4.8c-0.3,0.2-0.8,0.3-1.5,0.3v-0.6c1,0,1.5-0.4,1.7-1.1h0.6V20.3z"/>
		<path class="st0" d="M17.9,17c0.4-0.4,0.9-0.7,1.4-0.7c0.5,0,1,0.2,1.3,0.6s0.5,0.8,0.5,1.4c0,0.6-0.2,1.1-0.5,1.5
			s-0.8,0.6-1.4,0.6c-0.7,0-1.2-0.3-1.6-0.8s-0.6-1.3-0.6-2.2c0-2.3,0.7-3.4,2.2-3.4c0.5,0,0.9,0.1,1.2,0.4c0.3,0.3,0.5,0.6,0.6,1.1
			h-0.8c-0.1-0.6-0.4-0.9-1-0.9c-0.4,0-0.7,0.2-0.9,0.6C18.1,15.7,17.9,16.3,17.9,17z M17.9,17.6c0,0.7,0.1,1.2,0.4,1.6
			s0.5,0.6,0.9,0.6c0.3,0,0.6-0.1,0.8-0.4s0.3-0.6,0.3-1c0-0.4-0.1-0.8-0.3-1c-0.2-0.3-0.5-0.4-0.8-0.4C18.7,17,18.3,17.2,17.9,17.6
			z"/>
	</g>
</g>
</svg>
